<svg xmlns="http://www.w3.org/2000/svg" width="1200" height="260" viewBox="0 0 1200 260">
  <defs>
    <marker id="arrow" viewBox="0 0 10 10" refX="9" refY="5" markerWidth="8" markerHeight="8" orient="auto">
      <path d="M 0 0 L 10 5 L 0 10 z" fill="#333" />
    </marker>
    <style>
      .box { fill:#f5f5f5; stroke:#333; stroke-width:2; }
      .txt { font-family: Arial, sans-serif; font-size:16px; fill:#111; }
      .arrow { stroke:#333; stroke-width:2; marker-end:url(#arrow); }
    </style>
  </defs>

  <rect class="box" x="30" y="60" width="160" height="80" rx="6" />
  <text class="txt" x="110" y="102" text-anchor="middle">Tag push</text>
  <text class="txt" x="110" y="122" text-anchor="middle">or manual</text>

  <line class="arrow" x1="190" y1="100" x2="250" y2="100" />

  <rect class="box" x="250" y="60" width="170" height="80" rx="6" />
  <text class="txt" x="335" y="102" text-anchor="middle">CI workflow</text>

  <line class="arrow" x1="420" y1="100" x2="480" y2="100" />

  <rect class="box" x="480" y="60" width="170" height="80" rx="6" />
  <text class="txt" x="565" y="102" text-anchor="middle">kind cluster</text>

  <line class="arrow" x1="650" y1="100" x2="710" y2="100" />

  <rect class="box" x="710" y="60" width="170" height="80" rx="6" />
  <text class="txt" x="795" y="102" text-anchor="middle">Helm deploy</text>

  <line class="arrow" x1="880" y1="100" x2="940" y2="100" />

  <rect class="box" x="940" y="60" width="170" height="80" rx="6" />
  <text class="txt" x="1025" y="102" text-anchor="middle">Smoke tests</text>

  <line class="arrow" x1="1025" y1="140" x2="1025" y2="200" />

  <rect class="box" x="940" y="200" width="170" height="50" rx="6" />
  <text class="txt" x="1025" y="232" text-anchor="middle">Pass / Fail</text>
</svg>
